<svg width="38" height="40" viewBox="0 0 38 40" fill="none" xmlns="http://www.w3.org/2000/svg">
<g id="cart">
<path id="Vector" d="M12.9741 33.773C13.6308 33.773 14.1633 33.2084 14.1633 32.5118C14.1633 31.8152 13.6308 31.2505 12.9741 31.2505C12.3173 31.2505 11.7849 31.8152 11.7849 32.5118C11.7849 33.2084 12.3173 33.773 12.9741 33.773Z" stroke="#FDFDFD" stroke-width="1.00189" stroke-linecap="round" stroke-linejoin="round"/>
<path id="Vector_2" d="M29.474 33.773C30.1308 33.773 30.6632 33.2084 30.6632 32.5118C30.6632 31.8152 30.1308 31.2505 29.474 31.2505C28.8172 31.2505 28.2848 31.8152 28.2848 32.5118C28.2848 33.2084 28.8172 33.773 29.474 33.773Z" stroke="#FDFDFD" stroke-width="1.00189" stroke-linecap="round" stroke-linejoin="round"/>
<path id="Vector_3" d="M3.53467 6.2496H8.24895L11.7847 27.4996H30.6418" stroke="#FDFDFD" stroke-width="1.00189" stroke-linecap="round" stroke-linejoin="round"/>
<path id="Vector_4" d="M11.7873 22.5011H30.1613C30.2975 22.5012 30.4296 22.4512 30.5351 22.3596C30.6405 22.268 30.7127 22.1405 30.7395 21.9988L32.8609 10.7488C32.878 10.6581 32.876 10.5645 32.8548 10.4747C32.8337 10.3849 32.794 10.3013 32.7387 10.2298C32.6834 10.1582 32.6138 10.1006 32.5349 10.0611C32.4561 10.0215 32.3699 10.0011 32.2827 10.0011H9.43018" stroke="#FDFDFD" stroke-width="1.00189" stroke-linecap="round" stroke-linejoin="round"/>
</g>
</svg>
