<svg width="40" height="40" viewBox="0 0 40 40" fill="none" xmlns="http://www.w3.org/2000/svg">
<g id="location">
<path id="Vector" d="M19.9991 3.75012C13.7881 3.75012 8.74908 8.54622 8.74908 14.4533C8.74908 21.2501 16.2491 32.0212 19.003 35.7415C19.1173 35.8986 19.2671 36.0264 19.4402 36.1145C19.6134 36.2026 19.8048 36.2485 19.9991 36.2485C20.1933 36.2485 20.3848 36.2026 20.5579 36.1145C20.731 36.0264 20.8809 35.8986 20.9952 35.7415C23.7491 32.0228 31.2491 21.2556 31.2491 14.4533C31.2491 8.54622 26.21 3.75012 19.9991 3.75012Z" stroke="black" stroke-width="1.00189" stroke-linecap="round" stroke-linejoin="round"/>
<path id="Vector_2" d="M20.0028 18.7558C22.0754 18.7558 23.7555 17.0756 23.7555 15.003C23.7555 12.9304 22.0754 11.2503 20.0028 11.2503C17.9302 11.2503 16.25 12.9304 16.25 15.003C16.25 17.0756 17.9302 18.7558 20.0028 18.7558Z" stroke="black" stroke-width="1.00189" stroke-linecap="round" stroke-linejoin="round"/>
</g>
</svg>
