<svg width="33" height="30" viewBox="0 0 33 30" fill="none" xmlns="http://www.w3.org/2000/svg">
<path id="Star 1" d="M15.0805 1.15558C15.5429 -0.197927 17.4571 -0.197928 17.9195 1.15558L20.7558 9.45904C20.9632 10.0662 21.5337 10.4742 22.1753 10.4742H31.1879C32.6591 10.4742 33.251 12.3717 32.0407 13.2082L24.8805 18.1566C24.3283 18.5382 24.0969 19.2402 24.3138 19.8754L27.0789 27.9702C27.5464 29.3391 25.9966 30.5114 24.8066 29.689L17.3528 24.5377C16.8396 24.183 16.1604 24.183 15.6472 24.5377L8.19342 29.689C7.00342 30.5114 5.45355 29.3391 5.92114 27.9702L8.68616 19.8754C8.90314 19.2402 8.6717 18.5382 8.1195 18.1566L0.959322 13.2082C-0.250957 12.3717 0.340948 10.4742 1.81213 10.4742H10.8247C11.4663 10.4742 12.0368 10.0662 12.2442 9.45904L15.0805 1.15558Z" fill="#FFB9D2"/>
</svg>
