<svg width="36" height="34" viewBox="0 0 36 34" fill="none" xmlns="http://www.w3.org/2000/svg">
<g id="heart">
<path id="Vector" d="M18.0004 29.7509C17.5487 29.7504 17.1077 29.6215 16.7347 29.381C11.2089 25.8382 8.81613 23.4091 7.49637 21.8904C4.68387 18.6531 3.33738 15.3295 3.37535 11.7302C3.41965 7.60574 6.92332 4.2509 11.1857 4.2509C14.285 4.2509 16.4317 5.89977 17.6818 7.27305C17.7214 7.31611 17.7704 7.35064 17.8253 7.37431C17.8803 7.39797 17.94 7.41022 18.0004 7.41022C18.0607 7.41022 18.1204 7.39797 18.1754 7.37431C18.2303 7.35064 18.2793 7.31611 18.3189 7.27305C19.569 5.89844 21.7157 4.2509 24.815 4.2509C29.0774 4.2509 32.5811 7.60574 32.6254 11.7309C32.6633 15.3308 31.3154 18.6544 28.5043 21.8911C27.1846 23.4098 24.7918 25.8389 19.266 29.3817C18.8929 29.6219 18.4519 29.7506 18.0004 29.7509Z" fill="#D95F83"/>
</g>
</svg>
